#!OML:ASF H:\ManfredETheater\Project 1\Capture day 1\Session 1\subject.ASF
:FULLY-SPECIFIED
:DEGREES
171
root -2.10868 15.8284 35.5191 13.6154 60.7611 5.96411
lowerback 27.3899 0.0860422 0.538503
upperback 6.44987 1.06701 4.18002
thorax -8.02757 0.680742 3.9701
lowerneck -0.93477 -16.3927 -17.7808
upperneck -6.70923 -21.6053 19.6188
head 2.31627 -10.7889 7.44733
rclavicle -7.95139e-015 -4.45278e-014
rhumerus -36.7844 -17.0895 -67.4502
rradius 38.4126
rwrist -3.45669
rhand -22.3113 -11.3391
rfingers 7.12502
rthumb 4.10817 -41.2792
lclavicle -7.95139e-015 -4.45278e-014
lhumerus -48.8405 18.8063 69.1582
lradius 59.3113
lwrist -1.91606
lhand -23.1018 7.2148
lfingers 7.12502
lthumb 3.3448 37.1683
rfemur -40.5827 -20.0479 7.56415
rtibia 55.2387
rfoot -14.6131 -10.0269
rtoes 1.70195
lfemur -37.2739 -2.31802 -6.46738
ltibia 53.3597
lfoot -22.2882 -2.68902
ltoes -15.9781
172
root -2.07167 15.8872 35.5978 13.9461 59.883 6.31086
lowerback 26.8746 0.128115 0.259384
upperback 6.28053 1.00339 4.0752
thorax -7.95842 0.646541 4.03271
lowerneck -1.17836 -16.3005 -17.7399
upperneck -6.67244 -21.4431 19.5016
head 2.31723 -10.6932 7.41098
rclavicle -4.53229e-014 6.36111e-015
rhumerus -37.1672 -17.2658 -67.51
rradius 38.3444
rwrist -3.63556
rhand -22.4265 -11.4571
rfingers 7.12502
rthumb 3.9969 -41.3994
lclavicle -4.53229e-014 6.36111e-015
lhumerus -48.9018 18.4558 68.9554
lradius 59.4739
lwrist -1.61097
lhand -22.8765 7.6096
lfingers 7.12502
lthumb 3.56232 37.5596
rfemur -40.3289 -20.0129 7.62422
rtibia 54.6807
rfoot -14.3709 -10.7307
rtoes 2.55534
lfemur -36.0845 -2.56699 -6.55132
ltibia 52.2272
lfoot -21.9682 -1.86812
ltoes -15.7732
173
root -2.03545 15.9433 35.6782 14.1994 58.9966 6.6011
lowerback 26.4022 0.152575 0.0229708
upperback 6.09759 0.931453 3.95001
thorax -7.92227 0.608163 4.05083
lowerneck -1.41719 -16.1925 -17.6867
upperneck -6.60819 -21.2629 19.3773
head 2.32045 -10.5888 7.37306
rclavicle -1.82882e-014 -1.74931e-014
rhumerus -37.5394 -17.377 -67.6123
rradius 38.2692
rwrist -3.83697
rhand -22.5887 -11.6182
rfingers 7.12502
rthumb 3.84025 -41.5634
lclavicle -1.82882e-014 -1.74931e-014
lhumerus -48.9958 18.1223 68.7156
lradius 59.6339
lwrist -1.30649
lhand -22.6775 8.00379
lfingers 7.12502
lthumb 3.75457 37.9505
rfemur -40.0601 -19.9548 7.68133
rtibia 54.1171
rfoot -14.0469 -11.1495
rtoes 3.16363
lfemur -34.8827 -2.80402 -6.62572
ltibia 51.1243
lfoot -21.6464 -1.05418
ltoes -15.6459
174
root -1.99971 15.9969 35.7602 14.364 58.0984 6.82164
lowerback 25.9605 0.167383 -0.175157
upperback 5.90884 0.860353 3.81718
thorax -7.90572 0.570105 4.03813
lowerneck -1.63913 -16.0694 -17.6197
upperneck -6.53739 -21.0653 19.2446
head 2.31779 -10.4769 7.33481
rclavicle 3.10104e-014 2.06736e-014
rhumerus -37.895 -17.4216 -67.7442
rradius 38.1897
rwrist -4.03741
rhand -22.7764 -11.8063
rfingers 7.12502
rthumb 3.65904 -41.7546
lclavicle 3.10104e-014 2.06736e-014
lhumerus -49.1113 17.8062 68.4602
lradius 59.7862
lwrist -0.995469
lhand -22.5032 8.39789
lfingers 7.12502
lthumb 3.92281 38.3415
rfemur -39.7708 -19.8604 7.74312
rtibia 53.5446
rfoot -13.6591 -11.2661
rtoes 3.5154
lfemur -33.6701 -3.01542 -6.68418
ltibia 50.063
lfoot -21.3234 -0.238176
ltoes -15.6885
175
root -1.96486 16.0479 35.844 14.4345 57.1964 6.96121
lowerback 25.5639 0.166066 -0.320218
upperback 5.70522 0.784791 3.67377
thorax -7.92594 0.529721 3.98484
lowerneck -1.85633 -15.9337 -17.5201
upperneck -6.4403 -20.8541 19.0863
head 2.31349 -10.3587 7.28633
rclavicle -1.03368e-014 -3.97569e-014
rhumerus -38.2465 -17.3927 -67.9177
rradius 38.109
rwrist -4.21401
rhand -22.9578 -11.9982
rfingers 7.12502
rthumb 3.48389 -41.9495
lclavicle -1.03368e-014 -3.97569e-014
lhumerus -49.2577 17.5035 68.1769
lradius 59.9309
lwrist -0.677483
lhand -22.3596 8.76378
lfingers 7.12502
lthumb 4.06156 38.7048
rfemur -39.4578 -19.7221 7.82002
rtibia 52.9667
rfoot -13.2607 -11.1073
rtoes 3.52358
lfemur -32.4609 -3.20111 -6.71333
ltibia 49.0574
lfoot -20.9848 0.585998
ltoes -16.0027
176
root -1.93071 16.0965 35.9293 14.4345 56.2871 7.03961
lowerback 25.1958 0.15533 -0.4241
upperback 5.49227 0.709521 3.52419
thorax -7.96942 0.489303 3.90109
lowerneck -2.07438 -15.7871 -17.3919
upperneck -6.31737 -20.6309 18.8987
head 2.3087 -10.2348 7.22625
rclavicle -3.97569e-015 -2.38542e-014
rhumerus -38.5894 -17.2986 -68.1221
rradius 38.0314
rwrist -4.35203
rhand -23.1144 -12.1848
rfingers 7.12502
rthumb 3.33262 -42.1385
lclavicle -3.97569e-015 -2.38542e-014
lhumerus -49.4189 17.22 67.8813
lradius 60.0585
lwrist -0.360036
lhand -22.2535 9.10316
lfingers 7.12502
lthumb 4.16402 39.0422
rfemur -39.1257 -19.5432 7.904
rtibia 52.3917
rfoot -12.8963 -10.7125
rtoes 3.26006
lfemur -31.2668 -3.363 -6.72024
ltibia 48.1187
lfoot -20.6232 1.40645
ltoes -16.5885
177
root -1.89745 16.1425 36.0165 14.3825 55.3753 7.07519
lowerback 24.8558 0.134673 -0.498032
upperback 5.26953 0.63064 3.3701
thorax -8.03659 0.447159 3.79654
lowerneck -2.29895 -15.6305 -17.2475
upperneck -6.16015 -20.3969 18.6895
head 2.3095 -10.1051 7.15724
rclavicle -3.97569e-014 -1.90833e-014
rhumerus -38.9251 -17.1495 -68.3517
rradius 37.9582
rwrist -4.43396
rhand -23.225 -12.3303
rfingers 7.12502
rthumb 3.22583 -42.2856
lclavicle -3.97569e-014 -1.90833e-014
lhumerus -49.5932 16.9593 67.5769
lradius 60.1634
lwrist -0.0510338
lhand -22.1789 9.415
lfingers 7.12502
lthumb 4.23598 39.3526
rfemur -38.7754 -19.3278 7.99063
rtibia 51.8316
rfoot -12.603 -10.1538
rtoes 2.82389
lfemur -30.0976 -3.50306 -6.7103
ltibia 47.2546
lfoot -20.2259 2.21905
ltoes -17.5013
178
root -1.8656 16.1863 36.1055 14.2939 54.4652 7.08262
lowerback 24.5379 0.106741 -0.555679
upperback 5.04275 0.548214 3.21669
thorax -8.11841 0.403511 3.68474
lowerneck -2.53821 -15.4652 -17.1042
upperneck -5.96942 -20.1527 18.4726
head 2.32079 -9.96962 7.08468
rclavicle -6.99722e-014 -7.95139e-015
rhumerus -39.2434 -16.9466 -68.6027
rradius 37.8942
rwrist -4.46714
rhand -23.2689 -12.4354
rfingers 7.12502
rthumb 3.18339 -42.3914
lclavicle -6.99722e-014 -7.95139e-015
lhumerus -49.7669 16.7293 67.2763
lradius 60.2452
lwrist 0.242302
lhand -22.1366 9.69997
lfingers 7.12502
lthumb 4.27683 39.6368
rfemur -38.4123 -19.0843 8.08099
rtibia 51.2976
rfoot -12.3998 -9.51302
rtoes 2.29332
lfemur -28.961 -3.63525 -6.67893
ltibia 46.4695
lfoot -19.7885 2.96827
ltoes -18.5446
179
root -1.83551 16.2282 36.1965 14.1753 53.5646 7.07024
lowerback 24.2334 0.0749181 -0.611777
upperback 4.82064 0.463722 3.07398
thorax -8.20122 0.359359 3.58457
lowerneck -2.78952 -15.299 -16.952
upperneck -5.76671 -19.907 18.2395
head 2.33527 -9.83313 7.00478
rclavicle 3.10104e-014 -2.06736e-014
rhumerus -39.5315 -16.7012 -68.864
rradius 37.8415
rwrist -4.44894
rhand -23.2508 -12.4999
rfingers 7.12502
rthumb 3.20085 -42.4556
lclavicle 3.10104e-014 -2.06736e-014
lhumerus -49.9252 16.54 66.9939
lradius 60.2947
lwrist 0.49951
lhand -22.1093 9.94716
lfingers 7.12502
lthumb 4.30321 39.8834
rfemur -38.0378 -18.822 8.17882
rtibia 50.7981
rfoot -12.2862 -8.85773
rtoes 1.7798
lfemur -27.8604 -3.76757 -6.62363
ltibia 45.7639
lfoot -19.3073 3.62521
ltoes -19.6381
180
root -1.80765 16.2686 36.2895 14.0433 52.6808 7.05638
lowerback 23.9358 0.0405825 -0.676752
upperback 4.60896 0.376254 2.9422
thorax -8.27526 0.314421 3.50237
lowerneck -3.05223 -15.1313 -16.8239
upperneck -5.55479 -19.6588 18.0265
head 2.35967 -9.69482 6.93257
rclavicle 1.98785e-014 0
rhumerus -39.7813 -16.4289 -69.1322
rradius 37.8007
rwrist -4.40158
rhand -23.1703 -12.5212
rfingers 7.12502
rthumb 3.27866 -42.4757
lclavicle 1.98785e-014 0
lhumerus -50.0496 16.3889 66.7426
lradius 60.3106
lwrist 0.727058
lhand -22.0902 10.1821
lfingers 7.12502
lthumb 4.32166 40.118
rfemur -37.6566 -18.5578 8.28394
rtibia 50.3368
rfoot -12.2524 -8.22859
rtoes 1.35195
lfemur -26.8026 -3.90248 -6.55354
ltibia 45.1348
lfoot -18.7752 4.18234
ltoes -20.7783
181
root -1.78228 16.308 36.3845 13.907 51.8156 7.04498
lowerback 23.6412 0.00291385 -0.753452
upperback 4.40739 0.283877 2.82073
thorax -8.33885 0.267822 3.43955
lowerneck -3.3215 -14.9677 -16.7028
upperneck -5.34853 -19.4151 17.825
head 2.38716 -9.55884 6.8635
rclavicle -7.15625e-015 -2.38542e-014
rhumerus -39.9917 -16.1369 -69.4081
rradius 37.7733
rwrist -4.32429
rhand -23.0363 -12.5085
rfingers 7.12502
rthumb 3.40807 -42.461
lclavicle -7.15625e-015 -2.38542e-014
lhumerus -50.1374 16.2806 66.5265
lradius 60.294
lwrist 0.929193
lhand -22.0799 10.4336
lfingers 7.12502
lthumb 4.33161 40.3693
rfemur -37.2784 -18.2927 8.401
rtibia 49.9119
rfoot -12.2627 -7.65653
rtoes 1.074
lfemur -25.7962 -4.03821 -6.47104
ltibia 44.5786
lfoot -18.1878 4.63522
ltoes -21.9162
182
root -1.75959 16.3472 36.4819 13.7624 50.9762 7.03574
lowerback 23.3221 -0.0299657 -0.858772
upperback 4.23719 0.194467 2.72361
thorax -8.35445 0.223498 3.4181
lowerneck -3.59409 -14.8112 -16.6113
upperneck -5.17165 -19.1777 17.6558
head 2.41505 -9.42612 6.80756
rclavicle -1.03368e-014 3.02153e-014
rhumerus -40.136 -15.8404 -69.6793
rradius 37.757
rwrist -4.23702
rhand -22.8694 -12.4748
rfingers 7.12502
rthumb 3.5692 -42.4246
lclavicle -1.03368e-014 3.02153e-014
lhumerus -50.1597 16.2119 66.3766
lradius 60.2496
lwrist 1.11923
lhand -22.0794 10.6852
lfingers 7.12502
lthumb 4.33213 40.6209
rfemur -36.896 -18.0315 8.53736
rtibia 49.5172
rfoot -12.2896 -7.15286
rtoes 0.908196
lfemur -24.8356 -4.17066 -6.37501
ltibia 44.0882
lfoot -17.5453 4.97942
ltoes -23.0319
183
root -1.73988 16.3862 36.5813 13.6257 50.1564 7.03705
lowerback 23.0098 -0.0664566 -0.974677
upperback 4.07141 0.0992081 2.62725
thorax -8.36753 0.176959 3.40501
lowerneck -3.8676 -14.6623 -16.5145
upperneck -5.00146 -18.9507 17.4983
head 2.44436 -9.29904 6.75307
rclavicle 6.04305e-014 -1.11319e-014
rhumerus -40.2528 -15.5377 -69.9688
rradius 37.754
rwrist -4.14913
rhand -22.6964 -12.4294
rfingers 7.12502
rthumb 3.73632 -42.3764
lclavicle 6.04305e-014 -1.11319e-014
lhumerus -50.1483 16.1703 66.2531
lradius 60.1811
lwrist 1.29458
lhand -22.0757 10.9494
lfingers 7.12502
lthumb 4.33571 40.885
rfemur -36.523 -17.768 8.69052
rtibia 49.1442
rfoot -12.3291 -6.6976
rtoes 0.820663
lfemur -23.9302 -4.29186 -6.2751
ltibia 43.6571
lfoot -16.8419 5.22992
ltoes -24.1084
